<svg width="29" height="29" viewBox="0 0 29 29" fill="none" xmlns="http://www.w3.org/2000/svg">
<path d="M23.2 23.2C23.9691 23.2 24.7068 23.5055 25.2506 24.0494C25.7945 24.5932 26.1 25.3309 26.1 26.1C26.1 26.8691 25.7945 27.6068 25.2506 28.1506C24.7068 28.6945 23.9691 29 23.2 29C22.4309 29 21.6932 28.6945 21.1494 28.1506C20.6055 27.6068 20.3 26.8691 20.3 26.1C20.3 24.4905 21.5905 23.2 23.2 23.2ZM0 0H4.7415L6.1045 2.9H27.55C27.9346 2.9 28.3034 3.05277 28.5753 3.3247C28.8472 3.59662 29 3.96544 29 4.35C29 4.5965 28.9275 4.843 28.826 5.075L23.635 14.4565C23.142 15.341 22.185 15.95 21.0975 15.95H10.295L8.99 18.3135L8.9465 18.4875C8.9465 18.5836 8.98469 18.6758 9.05267 18.7438C9.12066 18.8118 9.21286 18.85 9.309 18.85H26.1V21.75H8.7C7.93087 21.75 7.19325 21.4445 6.64939 20.9006C6.10554 20.3568 5.8 19.6191 5.8 18.85C5.8 18.3425 5.9305 17.864 6.148 17.458L8.12 13.9055L2.9 2.9H0V0ZM8.7 23.2C9.46913 23.2 10.2068 23.5055 10.7506 24.0494C11.2945 24.5932 11.6 25.3309 11.6 26.1C11.6 26.8691 11.2945 27.6068 10.7506 28.1506C10.2068 28.6945 9.46913 29 8.7 29C7.93087 29 7.19325 28.6945 6.64939 28.1506C6.10554 27.6068 5.8 26.8691 5.8 26.1C5.8 24.4905 7.0905 23.2 8.7 23.2ZM21.75 13.05L25.781 5.8H7.453L10.875 13.05H21.75Z" fill="black"/>
</svg>
