<svg width="29" height="29" viewBox="0 0 29 29" fill="none" xmlns="http://www.w3.org/2000/svg">
<path d="M14.5 4.35C13.7308 4.35 12.9932 4.65554 12.4494 5.19939C11.9055 5.74325 11.6 6.48087 11.6 7.25C11.6 8.01913 11.9055 8.75676 12.4494 9.30061C12.9932 9.84447 13.7308 10.15 14.5 10.15C15.2691 10.15 16.0067 9.84447 16.5506 9.30061C17.0944 8.75676 17.4 8.01913 17.4 7.25C17.4 6.48087 17.0944 5.74325 16.5506 5.19939C16.0067 4.65554 15.2691 4.35 14.5 4.35ZM10.15 7.25C10.15 6.09631 10.6083 4.98987 11.4241 4.17409C12.2398 3.3583 13.3463 2.9 14.5 2.9C15.6537 2.9 16.7601 3.3583 17.5759 4.17409C18.3917 4.98987 18.85 6.09631 18.85 7.25C18.85 8.40369 18.3917 9.51013 17.5759 10.3259C16.7601 11.1417 15.6537 11.6 14.5 11.6C13.3463 11.6 12.2398 11.1417 11.4241 10.3259C10.6083 9.51013 10.15 8.40369 10.15 7.25ZM7.32683 14.4942C7.27753 14.7301 7.25288 14.9737 7.25288 15.225V16.0153L3.43793 17.0375C3.2522 17.0871 3.09378 17.2085 2.99753 17.3749C2.90127 17.5413 2.87505 17.7392 2.92463 17.9249L3.86278 21.4267C4.13802 22.4522 4.77887 23.3416 5.66454 23.9274C6.55021 24.5131 7.61953 24.7546 8.67098 24.6065C9.00448 25.056 9.38873 25.4678 9.81503 25.8288L9.56708 25.9014C8.8313 26.0987 8.06386 26.1492 7.30857 26.0499C6.55329 25.9507 5.82495 25.7036 5.16517 25.3228C4.50539 24.942 3.92708 24.435 3.46328 23.8307C2.99948 23.2263 2.65927 22.5366 2.46208 21.8008L1.52393 18.299C1.45003 18.0231 1.43121 17.7353 1.46854 17.4521C1.50587 17.1689 1.59861 16.8959 1.74147 16.6485C1.88433 16.4012 2.07451 16.1844 2.30115 16.0106C2.52779 15.8367 2.78646 15.7092 3.06238 15.6354L7.32683 14.4942ZM21.75 9.425C21.75 8.84816 21.9791 8.29494 22.387 7.88704C22.7949 7.47915 23.3481 7.25 23.925 7.25C24.5018 7.25 25.055 7.47915 25.4629 7.88704C25.8708 8.29494 26.1 8.84816 26.1 9.425C26.1 10.0018 25.8708 10.5551 25.4629 10.963C25.055 11.3709 24.5018 11.6 23.925 11.6C23.3481 11.6 22.7949 11.3709 22.387 10.963C21.9791 10.5551 21.75 10.0018 21.75 9.425ZM23.925 5.8C22.9636 5.8 22.0415 6.18192 21.3617 6.86174C20.6819 7.54156 20.3 8.46359 20.3 9.425C20.3 10.3864 20.6819 11.3084 21.3617 11.9883C22.0415 12.6681 22.9636 13.05 23.925 13.05C24.8864 13.05 25.8084 12.6681 26.4882 11.9883C27.1681 11.3084 27.55 10.3864 27.55 9.425C27.55 8.46359 27.1681 7.54156 26.4882 6.86174C25.8084 6.18192 24.8864 5.8 23.925 5.8ZM5.07498 7.25C4.49813 7.25 3.94491 7.47915 3.53702 7.88704C3.12913 8.29494 2.89998 8.84816 2.89998 9.425C2.89998 10.0018 3.12913 10.5551 3.53702 10.963C3.94491 11.3709 4.49813 11.6 5.07498 11.6C5.65182 11.6 6.20504 11.3709 6.61293 10.963C7.02082 10.5551 7.24998 10.0018 7.24998 9.425C7.24998 8.84816 7.02082 8.29494 6.61293 7.88704C6.20504 7.47915 5.65182 7.25 5.07498 7.25ZM1.44998 9.425C1.44998 8.46359 1.83189 7.54156 2.51171 6.86174C3.19153 6.18192 4.11357 5.8 5.07498 5.8C6.03639 5.8 6.95842 6.18192 7.63824 6.86174C8.31806 7.54156 8.69998 8.46359 8.69998 9.425C8.69998 10.3864 8.31806 11.3084 7.63824 11.9883C6.95842 12.6681 6.03639 13.05 5.07498 13.05C4.11357 13.05 3.19153 12.6681 2.51171 11.9883C1.83189 11.3084 1.44998 10.3864 1.44998 9.425ZM10.875 13.05C10.2981 13.05 9.74491 13.2792 9.33702 13.687C8.92913 14.0949 8.69998 14.6482 8.69998 15.225V20.3C8.70001 21.0922 8.86233 21.876 9.17691 22.603C9.49149 23.33 9.95168 23.9849 10.5291 24.5273C11.1065 25.0696 11.7889 25.4879 12.5342 25.7564C13.2795 26.0249 14.0718 26.1379 14.8625 26.0884C14.4873 25.6326 14.1639 25.1366 13.8982 24.6094C12.8587 24.4642 11.9067 23.948 11.2178 23.156C10.5289 22.364 10.1497 21.3497 10.15 20.3V15.225C10.15 15.0327 10.2264 14.8483 10.3623 14.7123C10.4983 14.5764 10.6827 14.5 10.875 14.5H16.4386C17.2446 13.9327 18.1487 13.5197 19.1052 13.282C18.8011 13.129 18.4654 13.0496 18.125 13.05H10.875ZM27.55 21.025C27.55 22.7555 26.8625 24.4152 25.6388 25.6389C24.4152 26.8625 22.7555 27.55 21.025 27.55C19.2944 27.55 17.6348 26.8625 16.4111 25.6389C15.1874 24.4152 14.5 22.7555 14.5 21.025C14.5 19.2945 15.1874 17.6348 16.4111 16.4111C17.6348 15.1875 19.2944 14.5 21.025 14.5C22.7555 14.5 24.4152 15.1875 25.6388 16.4111C26.8625 17.6348 27.55 19.2945 27.55 21.025ZM21.75 18.125C21.75 17.9327 21.6736 17.7483 21.5376 17.6123C21.4017 17.4764 21.2173 17.4 21.025 17.4C20.8327 17.4 20.6483 17.4764 20.5123 17.6123C20.3764 17.7483 20.3 17.9327 20.3 18.125V20.3H18.125C17.9327 20.3 17.7483 20.3764 17.6123 20.5123C17.4764 20.6483 17.4 20.8327 17.4 21.025C17.4 21.2173 17.4764 21.4017 17.6123 21.5377C17.7483 21.6736 17.9327 21.75 18.125 21.75H20.3V23.925C20.3 24.1173 20.3764 24.3017 20.5123 24.4377C20.6483 24.5736 20.8327 24.65 21.025 24.65C21.2173 24.65 21.4017 24.5736 21.5376 24.4377C21.6736 24.3017 21.75 24.1173 21.75 23.925V21.75H23.925C24.1173 21.75 24.3017 21.6736 24.4376 21.5377C24.5736 21.4017 24.65 21.2173 24.65 21.025C24.65 20.8327 24.5736 20.6483 24.4376 20.5123C24.3017 20.3764 24.1173 20.3 23.925 20.3H21.75V18.125Z" fill="black"/>
</svg>
